<svg width="3327" height="1024" viewBox="0 0 3327 1024" fill="none" xmlns="http://www.w3.org/2000/svg">
<path d="M1507.55 841.5C1474.12 841.5 1445.22 834.983 1420.85 821.95C1396.48 808.35 1377.22 788.8 1363.05 763.3V833H1222.8V212.5H1384.3V452.2C1397.33 427.833 1415.75 409.417 1439.55 396.95C1463.35 383.917 1491.4 377.4 1523.7 377.4C1550.9 377.4 1576.12 383.35 1599.35 395.25C1622.58 406.583 1642.7 422.733 1659.7 443.7C1677.27 464.667 1690.87 489.6 1700.5 518.5C1710.13 546.833 1714.95 577.717 1714.95 611.15C1714.95 644.017 1709.57 674.617 1698.8 702.95C1688.6 730.717 1674.15 755.083 1655.45 776.05C1637.32 797.017 1615.5 813.167 1590 824.5C1565.07 835.833 1537.58 841.5 1507.55 841.5ZM1460.8 705.5C1473.83 705.5 1485.73 703.233 1496.5 698.7C1507.27 694.167 1516.62 687.933 1524.55 680C1532.48 671.5 1538.43 661.583 1542.4 650.25C1546.93 638.917 1549.2 626.167 1549.2 612C1549.2 593.867 1545.52 577.433 1538.15 562.7C1531.35 547.4 1521.72 535.5 1509.25 527C1497.35 517.933 1483.47 513.4 1467.6 513.4C1456.27 513.4 1445.22 516.233 1434.45 521.9C1423.68 527.567 1413.77 535.5 1404.7 545.7C1396.2 555.333 1389.4 566.667 1384.3 579.7V659.6C1389.4 666.967 1394.78 673.767 1400.45 680C1406.68 685.667 1412.92 690.483 1419.15 694.45C1425.38 697.85 1431.9 700.683 1438.7 702.95C1446.07 704.65 1453.43 705.5 1460.8 705.5ZM1769.74 212.5H1931.24V655.35C1931.24 671.783 1934.64 684.533 1941.44 693.6C1948.81 702.1 1959.29 706.35 1972.89 706.35C1979.69 706.35 1987.06 705.217 1994.99 702.95C2002.93 700.683 2010.29 697.567 2017.09 693.6L2037.49 812.6C2018.23 821.667 1996.41 828.75 1972.04 833.85C1948.24 838.95 1925.58 841.5 1904.04 841.5C1860.98 841.5 1827.83 830.45 1804.59 808.35C1781.36 785.683 1769.74 753.667 1769.74 712.3V212.5ZM2050.64 697.85C2050.64 667.817 2058.86 641.467 2075.29 618.8C2091.72 595.567 2114.39 577.433 2143.29 564.4C2172.76 551.367 2206.19 544.85 2243.59 544.85C2261.16 544.85 2277.59 546.267 2292.89 549.1C2308.76 551.933 2322.36 556.183 2333.69 561.85V548.25C2333.69 527.283 2327.46 511.7 2314.99 501.5C2303.09 491.3 2283.54 486.2 2256.34 486.2C2231.41 486.2 2207.89 490.45 2185.79 498.95C2164.26 506.883 2141.59 518.783 2117.79 534.65L2071.04 434.35C2101.07 415.083 2132.52 400.917 2165.39 391.85C2198.82 382.217 2234.52 377.4 2272.49 377.4C2343.32 377.4 2398.01 393.55 2436.54 425.85C2475.64 457.583 2495.19 504.9 2495.19 567.8V654.5C2495.19 669.8 2497.46 680.567 2501.99 686.8C2506.52 692.467 2514.46 695.867 2525.79 697V833C2512.76 835.833 2500.29 837.817 2488.39 838.95C2477.06 840.65 2466.86 841.5 2457.79 841.5C2428.89 841.5 2406.79 836.4 2391.49 826.2C2376.76 815.433 2367.12 799.85 2362.59 779.45L2359.19 763.3C2339.36 788.8 2316.41 808.35 2290.34 821.95C2264.27 834.983 2236.51 841.5 2207.04 841.5C2177.57 841.5 2150.94 835.267 2127.14 822.8C2103.34 810.333 2084.64 793.333 2071.04 771.8C2057.44 749.7 2050.64 725.05 2050.64 697.85ZM2312.44 708.9C2318.67 704.367 2323.77 699.55 2327.74 694.45C2331.71 688.783 2333.69 683.117 2333.69 677.45V644.3C2324.62 640.9 2314.14 638.067 2302.24 635.8C2290.91 633.533 2280.71 632.4 2271.64 632.4C2252.37 632.4 2235.94 637.217 2222.34 646.85C2209.31 656.483 2202.79 668.667 2202.79 683.4C2202.79 691.333 2205.06 698.7 2209.59 705.5C2214.12 711.733 2220.36 716.833 2228.29 720.8C2236.22 724.2 2245.29 725.9 2255.49 725.9C2265.12 725.9 2275.04 724.483 2285.24 721.65C2296.01 718.25 2305.07 714 2312.44 708.9ZM2763.48 841.5C2724.38 841.5 2685.84 835.267 2647.88 822.8C2610.48 809.767 2578.74 791.067 2552.68 766.7L2607.93 667.25C2635.69 685.383 2662.33 699.55 2687.83 709.75C2713.89 719.95 2737.41 725.05 2758.38 725.05C2770.28 725.05 2779.06 723.633 2784.73 720.8C2790.39 717.4 2793.23 712.017 2793.23 704.65C2793.23 699.55 2791.24 695.3 2787.28 691.9C2783.31 688.5 2776.79 685.1 2767.73 681.7C2759.23 678.3 2748.18 674.617 2734.58 670.65C2699.44 658.183 2669.98 646.567 2646.18 635.8C2622.94 625.033 2605.38 612 2593.48 596.7C2582.14 580.833 2576.48 559.867 2576.48 533.8C2576.48 503.2 2584.13 476.283 2599.43 453.05C2614.73 429.25 2636.54 410.55 2664.88 396.95C2693.78 383.35 2728.34 376.55 2768.58 376.55C2798.61 376.55 2828.64 381.367 2858.68 391C2889.28 400.067 2918.74 416.783 2947.08 441.15L2885.88 539.75C2857.54 522.183 2833.46 509.717 2813.63 502.35C2794.36 494.983 2777.08 491.3 2761.78 491.3C2754.41 491.3 2747.89 492.15 2742.23 493.85C2737.13 495.55 2733.16 498.1 2730.33 501.5C2727.49 504.9 2726.08 509.433 2726.08 515.1C2726.08 520.767 2728.06 525.583 2732.03 529.55C2735.99 532.95 2742.23 536.35 2750.73 539.75C2759.23 542.583 2769.99 545.983 2783.03 549.95C2821.56 561.283 2853.01 572.9 2877.38 584.8C2901.74 596.133 2919.59 610.017 2930.93 626.45C2942.83 642.883 2948.78 664.417 2948.78 691.05C2948.78 738.083 2932.06 774.917 2898.63 801.55C2865.76 828.183 2820.71 841.5 2763.48 841.5ZM3318.63 808.35C3303.89 814.583 3288.03 820.533 3271.03 826.2C3254.59 831.3 3237.59 835.267 3220.03 838.1C3203.03 840.933 3186.31 842.35 3169.88 842.35C3145.51 842.35 3123.13 838.383 3102.73 830.45C3082.33 821.95 3065.89 808.35 3053.43 789.65C3041.53 770.383 3035.58 744.6 3035.58 712.3V507.45H2980.33V385.9H3035.58V245.65H3197.08V385.9H3284.63V507.45H3197.08V655.35C3197.08 670.083 3200.19 680.567 3206.43 686.8C3212.66 692.467 3221.16 695.3 3231.93 695.3C3239.86 695.3 3248.93 693.883 3259.13 691.05C3269.33 688.217 3279.53 684.817 3289.73 680.85L3318.63 808.35Z" fill="white"/>
<path d="M860 0C950.575 0 1024 73.4253 1024 164V860C1024 950.575 950.575 1024 860 1024H164C73.4253 1024 0 950.575 0 860V164C0 73.4253 73.4253 0 164 0H860ZM421.389 544.129C290.556 510.862 230.684 556.604 241.771 681.354C252.859 744.323 397.551 749.075 675.847 695.61C637.04 627.889 552.221 577.396 421.389 544.129ZM312.534 292C229.463 379.863 195.434 478.99 210.447 589.382C363.579 413.656 521.715 413.656 684.855 589.382C945.079 478.99 820.971 379.863 312.534 292Z" fill="white"/>
</svg>
