<svg width="1024" height="1024" viewBox="0 0 1024 1024" fill="none" xmlns="http://www.w3.org/2000/svg">
<g clip-path="url(#clip0_1_364)">
<rect width="1024" height="1024" rx="164" fill="black"/>
<path d="M82.7882 1714.26C42.7668 1162.73 133.482 667.477 354.933 228.504C1710.32 667.477 2041.16 1162.73 1347.46 1714.26C912.563 836.314 491.006 836.314 82.7882 1714.26Z" fill="black"/>
<path d="M210.447 589.382C195.434 478.99 229.463 379.863 312.535 292C820.972 379.863 945.079 478.99 684.855 589.382C521.715 413.656 363.579 413.656 210.447 589.382Z" fill="white"/>
<path d="M241.771 681.353C230.683 556.603 290.556 510.862 421.388 544.128C552.221 577.395 637.04 627.889 675.846 695.61C397.55 749.075 252.859 744.322 241.771 681.353Z" fill="white"/>
</g>
<defs>
<clipPath id="clip0_1_364">
<rect width="1024" height="1024" rx="164" fill="white"/>
</clipPath>
</defs>
</svg>
